<svg width="32" height="32" viewBox="0 0 48 48" role="img" aria-label="Graphify icon" fill="none" xmlns="http://www.w3.org/2000/svg">
          <circle cx="24" cy="24" r="11" fill="none" stroke="#22c55e" stroke-width="0.4" opacity="0.18"></circle>
          <line x1="24" y1="24" x2="10" y2="11" stroke="#4ade80" stroke-width="1.2" stroke-linecap="round" opacity="0.9"></line>
          <line x1="24" y1="24" x2="39" y2="14" stroke="#4ade80" stroke-width="1.2" stroke-linecap="round" opacity="0.9"></line>
          <line x1="24" y1="24" x2="38" y2="36" stroke="#4ade80" stroke-width="1.2" stroke-linecap="round" opacity="0.9"></line>
          <line x1="24" y1="24" x2="11" y2="37" stroke="#4ade80" stroke-width="1.2" stroke-linecap="round" opacity="0.9"></line>
          <line x1="10" y1="11" x2="39" y2="14" stroke="#22c55e" stroke-width="1.1" stroke-linecap="round" opacity="0.55"></line>
          <line x1="39" y1="14" x2="38" y2="36" stroke="#22c55e" stroke-width="1.1" stroke-linecap="round" opacity="0.55"></line>
          <line x1="38" y1="36" x2="11" y2="37" stroke="#22c55e" stroke-width="1.1" stroke-linecap="round" opacity="0.55"></line>
          <line x1="11" y1="37" x2="10" y2="11" stroke="#22c55e" stroke-width="1.1" stroke-linecap="round" opacity="0.55"></line>
          <circle cx="10" cy="11" r="2.6" fill="#040806" stroke="#22c55e" stroke-width="1.3"></circle>
          <circle cx="10" cy="11" r="1.1" fill="#22c55e"></circle>
          <circle cx="39" cy="14" r="2.6" fill="#040806" stroke="#22c55e" stroke-width="1.3"></circle>
          <circle cx="39" cy="14" r="1.1" fill="#22c55e"></circle>
          <circle cx="38" cy="36" r="2.8" fill="#040806" stroke="#f59e0b" stroke-width="1.3"></circle>
          <circle cx="38" cy="36" r="1.25" fill="#f59e0b"></circle>
          <circle cx="11" cy="37" r="2.6" fill="#040806" stroke="#22c55e" stroke-width="1.3"></circle>
          <circle cx="11" cy="37" r="1.1" fill="#22c55e"></circle>
          <circle cx="24" cy="24" r="4.4" fill="#0a1410" stroke="#4ade80" stroke-width="1.6"></circle>
          <circle cx="24" cy="24" r="1.8" fill="#4ade80"></circle>
        </svg>
