<?xml version="1.0" encoding="UTF-8" standalone="no"?>
<!DOCTYPE svg PUBLIC "-//W3C//DTD SVG 1.1//EN" "http://www.w3.org/Graphics/SVG/1.1/DTD/svg11.dtd">
<svg width="100%" height="100%" viewBox="0 0 171 250" version="1.1" xmlns="http://www.w3.org/2000/svg" xmlns:xlink="http://www.w3.org/1999/xlink" xml:space="preserve" xmlns:serif="http://www.serif.com/" style="fill-rule:evenodd;clip-rule:evenodd;stroke-linejoin:round;stroke-miterlimit:2;">
    <g transform="matrix(10,0,0,10,0,0)">
        <path d="M4.405,0.102C4.621,0.199 4.816,0.358 4.993,0.568C5.288,0.916 5.537,1.413 5.727,2.003C5.918,2.596 6.042,3.253 6.089,3.912C6.719,3.507 7.418,3.261 8.138,3.19L8.189,3.185C9.059,3.105 9.919,3.284 10.669,3.724C10.77,3.784 10.869,3.849 10.966,3.917C11.016,3.27 11.138,2.628 11.326,2.049C11.516,1.458 11.765,0.961 12.059,0.612C12.223,0.41 12.425,0.251 12.648,0.146C12.905,0.033 13.178,0.012 13.444,0.099C13.845,0.228 14.189,0.517 14.46,0.936C14.708,1.319 14.894,1.81 15.021,2.399C15.251,3.46 15.291,4.857 15.136,6.541L15.189,6.586L15.215,6.608C15.972,7.262 16.499,8.195 16.778,9.278C17.213,10.968 16.994,12.863 16.244,13.924L16.226,13.947L16.228,13.951C16.645,14.817 16.898,15.731 16.952,16.678L16.954,16.712C17.018,17.922 16.754,19.14 16.14,20.337L16.133,20.348L16.143,20.376C16.615,21.69 16.763,23.014 16.581,24.337L16.575,24.381C16.547,24.574 16.453,24.747 16.312,24.861C16.172,24.975 15.998,25.022 15.828,24.99C15.744,24.975 15.663,24.942 15.59,24.891C15.518,24.841 15.454,24.774 15.404,24.696C15.354,24.618 15.318,24.529 15.298,24.435C15.278,24.341 15.275,24.243 15.288,24.147C15.455,22.973 15.298,21.796 14.808,20.598C14.762,20.487 14.742,20.364 14.749,20.242C14.756,20.119 14.79,20.001 14.848,19.897L14.852,19.89C15.456,18.84 15.706,17.811 15.652,16.8C15.606,15.914 15.327,15.045 14.852,14.217C14.76,14.056 14.727,13.86 14.761,13.671C14.794,13.483 14.892,13.317 15.032,13.21L15.041,13.203C15.284,13.022 15.508,12.561 15.621,11.93C15.746,11.185 15.713,10.416 15.526,9.687C15.321,8.892 14.946,8.228 14.421,7.775C13.826,7.259 13.038,7.01 12.041,7.082C11.911,7.091 11.781,7.056 11.668,6.981C11.556,6.906 11.465,6.794 11.409,6.66C11.095,5.904 10.637,5.363 10.066,5.028C9.518,4.717 8.904,4.587 8.294,4.651C7.049,4.763 5.951,5.561 5.624,6.567C5.578,6.708 5.495,6.83 5.386,6.917C5.277,7.003 5.147,7.049 5.014,7.05C3.947,7.052 3.121,7.336 2.517,7.849C1.995,8.292 1.639,8.911 1.451,9.653C1.281,10.351 1.258,11.086 1.383,11.796C1.495,12.43 1.714,12.955 1.965,13.238L1.973,13.246C2.185,13.481 2.23,13.848 2.082,14.138C1.722,14.845 1.453,15.898 1.409,16.911C1.359,18.068 1.595,19.072 2.128,19.793L2.144,19.814C2.225,19.921 2.276,20.051 2.293,20.191C2.31,20.329 2.291,20.471 2.239,20.598C1.663,22.003 1.486,23.157 1.677,24.067C1.711,24.256 1.68,24.452 1.588,24.615C1.497,24.778 1.353,24.893 1.188,24.937C1.022,24.982 0.848,24.951 0.703,24.851C0.557,24.752 0.451,24.592 0.408,24.405C0.165,23.248 0.33,21.923 0.881,20.43L0.895,20.39L0.887,20.377C0.616,19.922 0.414,19.419 0.289,18.889L0.284,18.868C0.132,18.206 0.073,17.522 0.107,16.839C0.151,15.805 0.385,14.746 0.729,13.896L0.741,13.867L0.739,13.864C0.446,13.389 0.229,12.781 0.109,12.109L0.104,12.081C-0.061,11.143 -0.029,10.174 0.197,9.252C0.459,8.212 0.974,7.319 1.733,6.674C1.793,6.622 1.856,6.571 1.919,6.524C1.76,4.827 1.8,3.421 2.031,2.353C2.158,1.765 2.345,1.274 2.593,0.891C2.863,0.473 3.207,0.184 3.608,0.053C3.874,-0.033 4.148,-0.013 4.405,0.102ZM8.521,10.431C9.457,10.431 10.321,10.787 10.967,11.403C11.597,12.002 11.972,12.806 11.972,13.608C11.972,14.617 11.566,15.403 10.839,15.905C10.219,16.331 9.388,16.538 8.436,16.538C7.427,16.538 6.565,16.244 5.943,15.704C5.326,15.17 4.98,14.42 4.98,13.608C4.98,12.804 5.378,11.997 6.036,11.396C6.704,10.786 7.586,10.431 8.521,10.431ZM8.521,11.45C7.827,11.443 7.152,11.703 6.605,12.188C6.144,12.609 5.883,13.137 5.883,13.609C5.883,14.095 6.093,14.551 6.493,14.897C6.948,15.292 7.617,15.52 8.436,15.52C9.235,15.52 9.909,15.353 10.368,15.036C10.831,14.718 11.068,14.256 11.068,13.608C11.068,13.127 10.822,12.596 10.385,12.18C9.901,11.72 9.245,11.45 8.521,11.45ZM9.183,12.825L9.187,12.829C9.307,13.001 9.282,13.25 9.131,13.386L8.839,13.647L8.839,14.154C8.839,14.267 8.799,14.375 8.728,14.454C8.658,14.534 8.562,14.578 8.463,14.578C8.364,14.578 8.269,14.534 8.198,14.454C8.128,14.375 8.088,14.267 8.087,14.154L8.087,13.631L7.816,13.384C7.78,13.351 7.751,13.311 7.729,13.265C7.707,13.22 7.693,13.169 7.688,13.118C7.683,13.066 7.688,13.014 7.701,12.964C7.714,12.914 7.735,12.867 7.764,12.827C7.823,12.745 7.908,12.693 8.001,12.682C8.093,12.672 8.186,12.703 8.258,12.769L8.473,12.964L8.693,12.767C8.765,12.702 8.857,12.672 8.949,12.682C9.04,12.693 9.124,12.744 9.183,12.825ZM4.143,10.644C4.621,10.644 5.01,11.087 5.01,11.634C5.01,11.896 4.919,12.147 4.756,12.333C4.594,12.518 4.373,12.623 4.142,12.623C3.912,12.623 3.691,12.518 3.529,12.333C3.366,12.147 3.275,11.896 3.275,11.635C3.275,11.373 3.366,11.121 3.528,10.935C3.691,10.75 3.913,10.645 4.143,10.644ZM12.849,10.644C13.329,10.644 13.717,11.087 13.717,11.634C13.717,11.896 13.626,12.147 13.463,12.333C13.301,12.518 13.08,12.623 12.849,12.623C12.619,12.623 12.399,12.518 12.236,12.333C12.073,12.147 11.982,11.896 11.982,11.635C11.982,11.373 12.073,11.121 12.235,10.935C12.398,10.75 12.619,10.645 12.849,10.644ZM3.94,1.477L3.937,1.479C3.821,1.537 3.722,1.63 3.652,1.75L3.647,1.757C3.509,1.971 3.389,2.287 3.299,2.702C3.129,3.488 3.083,4.555 3.175,5.863C3.605,5.718 4.074,5.627 4.579,5.594L4.589,5.593L4.608,5.554C4.654,5.461 4.703,5.371 4.756,5.283C4.879,4.407 4.778,3.36 4.503,2.505C4.369,2.092 4.206,1.767 4.05,1.582C4.018,1.543 3.982,1.509 3.943,1.479L3.94,1.477ZM13.114,1.523L13.112,1.524C13.073,1.553 13.037,1.587 13.005,1.626C12.849,1.811 12.685,2.137 12.552,2.551C12.262,3.453 12.165,4.569 12.322,5.474L12.38,5.584L12.388,5.6L12.418,5.6C12.915,5.6 13.408,5.681 13.884,5.841C13.97,4.563 13.922,3.519 13.756,2.747C13.666,2.333 13.546,2.017 13.407,1.802L13.403,1.795C13.333,1.675 13.234,1.581 13.118,1.524L13.114,1.523Z"/>
    </g>
</svg>
