<svg width="32" height="32" viewBox="0 0 32 32" fill="none" xmlns="http://www.w3.org/2000/svg">
<circle cx="16" cy="16" r="16" fill="white"/>
<g clip-path="url(#clip0_2730_155007)">
<path d="M15.998 6.99902C10.4747 6.99902 5.99805 11.439 5.99805 16.9174V21.6657H7.84138V21.1924C7.84138 18.9707 9.65638 17.169 11.8964 17.169C14.1364 17.169 15.9514 18.9707 15.9514 21.1924V21.6657H17.7947V21.1924C17.7947 17.9607 15.153 15.3424 11.8964 15.3424C10.628 15.3424 9.45305 15.739 8.49138 16.4157C9.49805 14.4307 11.5714 13.069 13.9647 13.069C17.3464 13.069 20.088 15.789 20.088 19.1424V21.6657H21.9314V19.1424C21.9314 14.779 18.3647 11.2407 13.9647 11.2407C11.9864 11.2407 10.1764 11.9557 8.78305 13.1407C10.1514 10.5757 12.868 8.82736 15.998 8.82736C20.503 8.82736 24.1547 12.449 24.1547 16.9174V21.6657H25.998V16.9174C25.998 11.439 21.5214 6.99902 15.998 6.99902Z" fill="black"/>
</g>
<defs>
<clipPath id="clip0_2730_155007">
<rect width="20" height="14.6667" fill="white" transform="translate(5.99805 6.99902)"/>
</clipPath>
</defs>
</svg>
